<svg xmlns="http://www.w3.org/2000/svg" width="11" height="14.99" viewBox="0 0 11 14.99">
  <g id="Group_2" data-name="Group 2" transform="translate(-912 -415)">
    <path id="Path_5" data-name="Path 5" d="M181.7,837h-6.454a2.283,2.283,0,0,1-2.273-2.292V825h2.977v-.667a2.506,2.506,0,0,1,2.492-2.323v.032a2.478,2.478,0,0,1,2.491,2.291V825h3.04v9.708A2.283,2.283,0,0,1,181.7,837Zm-6.392-1.01h6.3a1.369,1.369,0,0,0,1.363-1.375V828h-9.025v6.615a1.368,1.368,0,0,0,1.363,1.375Zm4.653-11.657a1.511,1.511,0,0,0-1.52-1.375,1.482,1.482,0,0,0-1.489,1.375V825h3.009Zm-6.017,1.677V827h9.025v-.99Z" transform="translate(739.027 -407.01)" fill="#444"/>
    <g id="letter-uppercase-square-r-svgrepo-com" transform="translate(901.161 411.995)" opacity="0.74">
      <path id="Path_2" data-name="Path 2" d="M15,14.5v-4h1.337a1.342,1.342,0,1,1,0,2.684H15" fill="none" stroke="#000" stroke-linecap="round" stroke-linejoin="round" stroke-width="1"/>
      <path id="Path_3" data-name="Path 3" d="M0,0,1.323,1.326" transform="translate(16.337 13.184)" fill="none" stroke="#000" stroke-linecap="round" stroke-width="1"/>
    </g>
  </g>
</svg>
